{
  "asset": {
    "version": "2.0",
    "generator": "GLTFExporter"
  },
  "scenes": [
    {
      "name": "Scene",
      "nodes": [
        13
      ]
    }
  ],
  "scene": 0,
  "nodes": [
    {
      "name": "buffer-0-mesh-0_0",
      "mesh": 0
    },
    {
      "name": "buffer-0-mesh-0_1",
      "mesh": 1
    },
    {
      "name": "buffer-0-mesh-0_2",
      "mesh": 2
    },
    {
      "name": "buffer-0-mesh-0_3",
      "mesh": 3
    },
    {
      "name": "node-0",
      "extras": {
        "name": "node-0"
      },
      "children": [
        0,
        1,
        2,
        3
      ]
    },
    {
      "matrix": [
        1,
        0,
        0,
        0,
        0,
        1,
        0,
        0,
        0,
        0,
        1,
        0,
        0.6527097710723383,
        -13.47258656237284,
        54.60418309063214,
        1
      ],
      "children": [
        4
      ]
    },
    {
      "matrix": [
        1,
        0,
        0,
        0,
        0,
        1,
        0,
        0,
        0,
        0,
        1,
        0,
        -0.6527097710723383,
        13.47258656237284,
        -54.60418309063214,
        1
      ],
      "extras": {
        "isTransformNode": 1
      },
      "children": [
        5
      ]
    },
    {
      "children": [
        6
      ]
    },
    {
      "matrix": [
        1,
        0,
        0,
        0,
        0,
        1,
        0,
        0,
        0,
        0,
        1,
        0,
        0,
        0,
        -1,
        1
      ]
    },
    {
      "matrix": [
        1,
        0,
        0,
        0,
        0,
        1,
        0,
        0,
        0,
        0,
        1,
        0,
        -282.1133702846676,
        141.0566851423338,
        141.0566851423338,
        1
      ],
      "name": "headLightNode",
      "extras": {
        "name": "headLightNode",
        "isHeadLight": 1
      },
      "extensions": {
        "KHR_lights_punctual": {
          "light": 0
        }
      },
      "children": [
        8
      ]
    },
    {
      "matrix": [
        0.9994946955395623,
        -1.734723475976807e-18,
        0.03178605965321556,
        0,
        0.014782689967021732,
        0.8852747822218566,
        -0.46483333791734777,
        0,
        -0.02813939703719135,
        0.4650683390234647,
        0.8848274489256869,
        0,
        -12.32937672805143,
        206.4162106868158,
        312.3182074925782,
        1
      ],
      "camera": 0,
      "children": [
        9
      ]
    },
    {
      "matrix": [
        1,
        0,
        0,
        0,
        0,
        1,
        0,
        0,
        0,
        0,
        1,
        0,
        0,
        0,
        -1,
        1
      ]
    },
    {
      "matrix": [
        0,
        0,
        0,
        0,
        0,
        0,
        0,
        0,
        -116.32402414707146,
        232.6480482941429,
        -116.3240241470715,
        0,
        -284.9344489549041,
        593.8532056494037,
        -294.3476808603809,
        1
      ],
      "name": "keyLightNode",
      "extras": {
        "name": "keyLightNode",
        "isKeyLight": 1
      },
      "extensions": {
        "KHR_lights_punctual": {
          "light": 1
        }
      },
      "children": [
        11
      ]
    },
    {
      "matrix": [
        0.005,
        0,
        0,
        0,
        0,
        0.005,
        0,
        0,
        0,
        0,
        0.005,
        0,
        0,
        0,
        0,
        1
      ],
      "name": "Sunglasses.gltf",
      "extras": {
        "GOOGLE_camera_index": {
          "cameraIndex": 0,
          "nodeIndex": 4
        },
        "GOOGLE_geometry_data": {
          "stats": {
            "centroid": [
              0.00005503261016745196,
              23.98419767437507,
              -9.413176872866629
            ],
            "radius": 282.1133702846676,
            "stdev": 86.98808852020244
          },
          "visualCenterPoint": [
            -0.6527097710723383,
            13.47258656237284,
            -54.60418309063214
          ]
        },
        "GOOGLE_hemi_light": {
          "groundColor": [
            0.2470588235294118,
            0.3176470588235294,
            0.7098039215686275
          ]
        },
        "gltfExtensions": {
          "GOOGLE_backgrounds": {
            "color": [
              0.2470588235294118,
              0.3176470588235294,
              0.7098039215686275
            ]
          },
          "GOOGLE_camera_settings": {}
        }
      },
      "children": [
        7,
        10,
        12
      ]
    }
  ],
  "bufferViews": [
    {
      "buffer": 0,
      "byteOffset": 0,
      "byteLength": 219744,
      "target": 34962,
      "byteStride": 12
    },
    {
      "buffer": 0,
      "byteOffset": 219744,
      "byteLength": 219744,
      "target": 34962,
      "byteStride": 12
    },
    {
      "buffer": 0,
      "byteOffset": 439488,
      "byteLength": 146496,
      "target": 34962,
      "byteStride": 8
    },
    {
      "buffer": 0,
      "byteOffset": 585984,
      "byteLength": 36624,
      "target": 34963
    },
    {
      "buffer": 0,
      "byteOffset": 622608,
      "byteLength": 8496,
      "target": 34962,
      "byteStride": 12
    },
    {
      "buffer": 0,
      "byteOffset": 631104,
      "byteLength": 8496,
      "target": 34962,
      "byteStride": 12
    },
    {
      "buffer": 0,
      "byteOffset": 639600,
      "byteLength": 5664,
      "target": 34962,
      "byteStride": 8
    },
    {
      "buffer": 0,
      "byteOffset": 645264,
      "byteLength": 1416,
      "target": 34963
    },
    {
      "buffer": 0,
      "byteOffset": 646680,
      "byteLength": 6048,
      "target": 34962,
      "byteStride": 12
    },
    {
      "buffer": 0,
      "byteOffset": 652728,
      "byteLength": 6048,
      "target": 34962,
      "byteStride": 12
    },
    {
      "buffer": 0,
      "byteOffset": 658776,
      "byteLength": 1008,
      "target": 34963
    },
    {
      "buffer": 0,
      "byteOffset": 659784,
      "byteLength": 13536,
      "target": 34962,
      "byteStride": 12
    },
    {
      "buffer": 0,
      "byteOffset": 673320,
      "byteLength": 13536,
      "target": 34962,
      "byteStride": 12
    },
    {
      "buffer": 0,
      "byteOffset": 686856,
      "byteLength": 9024,
      "target": 34962,
      "byteStride": 8
    },
    {
      "buffer": 0,
      "byteOffset": 695880,
      "byteLength": 2256,
      "target": 34963
    }
  ],
  "buffers": [
    {
      "byteLength": 698136,
      "uri": "data:application/octet-stream;base64,"
    }
  ],
  "accessors": [
    {
      "bufferView": 0,
      "componentType": 5126,
      "count": 18312,
      "max": [
        1,
        0.9999977946281433,
        0.9999978542327881
      ],
      "min": [
        -1,
        -0.9999977350234985,
        -0.9999978542327881
      ],
      "type": "VEC3"
    },
    {
      "bufferView": 1,
      "componentType": 5126,
      "count": 18312,
      "max": [
        129.54078674316406,
        58.2559814453125,
        3.314730167388916
      ],
      "min": [
        -129.54078674316406,
        -36.335662841796875,
        -121.30545806884766
      ],
      "type": "VEC3"
    },
    {
      "bufferView": 2,
      "componentType": 5126,
      "count": 18312,
      "max": [
        1,
        0
      ],
      "min": [
        0,
        -1
      ],
      "type": "VEC2"
    },
    {
      "bufferView": 3,
      "componentType": 5123,
      "count": 18312,
      "max": [
        18311
      ],
      "min": [
        0
      ],
      "type": "SCALAR"
    },
    {
      "bufferView": 4,
      "componentType": 5126,
      "count": 708,
      "max": [
        1,
        0.7378057241439819,
        0.9999977350234985
      ],
      "min": [
        -1,
        -0.9999977350234985,
        -0.8550289869308472
      ],
      "type": "VEC3"
    },
    {
      "bufferView": 5,
      "componentType": 5126,
      "count": 708,
      "max": [
        131.24679565429688,
        18.10951042175293,
        -120.56816101074219
      ],
      "min": [
        -131.24679565429688,
        -25.12001609802246,
        -227.43507385253906
      ],
      "type": "VEC3"
    },
    {
      "bufferView": 6,
      "componentType": 5126,
      "count": 708,
      "max": [
        1,
        0
      ],
      "min": [
        0,
        -1
      ],
      "type": "VEC2"
    },
    {
      "bufferView": 7,
      "componentType": 5123,
      "count": 708,
      "max": [
        707
      ],
      "min": [
        0
      ],
      "type": "SCALAR"
    },
    {
      "bufferView": 8,
      "componentType": 5126,
      "count": 504,
      "max": [
        0.8999090790748596,
        0.9720509648323059,
        0.899089515209198
      ],
      "min": [
        -0.8999087810516357,
        -0.8659637570381165,
        -0.8879521489143372
      ],
      "type": "VEC3"
    },
    {
      "bufferView": 9,
      "componentType": 5126,
      "count": 504,
      "max": [
        33.944278717041016,
        15.957221984863281,
        -3.859529495239258
      ],
      "min": [
        -33.944278717041016,
        -8.147327423095703,
        -11.96201229095459
      ],
      "type": "VEC3"
    },
    {
      "bufferView": 10,
      "componentType": 5123,
      "count": 504,
      "max": [
        503
      ],
      "min": [
        0
      ],
      "type": "SCALAR"
    },
    {
      "bufferView": 11,
      "componentType": 5126,
      "count": 1128,
      "max": [
        0.9788784384727478,
        0.9391199350357056,
        0.9999976754188538
      ],
      "min": [
        -0.9788784384727478,
        -0.9667827486991882,
        -0.9998233914375305
      ],
      "type": "VEC3"
    },
    {
      "bufferView": 12,
      "componentType": 5126,
      "count": 1128,
      "max": [
        123.72113037109375,
        57.59814453125,
        9.138895988464355
      ],
      "min": [
        -123.72113037109375,
        -35.8780403137207,
        -1.6786068677902222
      ],
      "type": "VEC3"
    },
    {
      "bufferView": 13,
      "componentType": 5126,
      "count": 1128,
      "max": [
        1,
        0
      ],
      "min": [
        0,
        -1
      ],
      "type": "VEC2"
    },
    {
      "bufferView": 14,
      "componentType": 5123,
      "count": 1128,
      "max": [
        1127
      ],
      "min": [
        0
      ],
      "type": "SCALAR"
    }
  ],
  "materials": [
    {
      "pbrMetallicRoughness": {
        "baseColorFactor": [
          0.80000001192093,
          0.80000001192093,
          0.80000001192093,
          1
        ],
        "metallicFactor": 0,
        "roughnessFactor": 0.9699476628648295
      },
      "doubleSided": true,
      "name": "frame"
    },
    {
      "pbrMetallicRoughness": {
        "baseColorFactor": [
          0,
          0,
          0,
          1
        ],
        "metallicFactor": 0,
        "roughnessFactor": 0.8582186230066646
      },
      "doubleSided": true,
      "name": "arm"
    },
    {
      "pbrMetallicRoughness": {
        "metallicFactor": 0,
        "roughnessFactor": 1
      },
      "doubleSided": true,
      "name": "nose"
    },
    {
      "pbrMetallicRoughness": {
        "baseColorFactor": [
          1,
          1,
          1,
          0.2
        ],
        "metallicFactor": 0,
        "roughnessFactor": 0.7358395138449315
      },
      "alphaMode": "BLEND",
      "doubleSided": true,
      "name": "lense"
    }
  ],
  "meshes": [
    {
      "primitives": [
        {
          "mode": 4,
          "attributes": {
            "NORMAL": 0,
            "POSITION": 1,
            "TEXCOORD_0": 2
          },
          "indices": 3,
          "material": 0
        }
      ]
    },
    {
      "primitives": [
        {
          "mode": 4,
          "attributes": {
            "NORMAL": 4,
            "POSITION": 5,
            "TEXCOORD_0": 6
          },
          "indices": 7,
          "material": 1
        }
      ]
    },
    {
      "primitives": [
        {
          "mode": 4,
          "attributes": {
            "NORMAL": 8,
            "POSITION": 9
          },
          "indices": 10,
          "material": 2
        }
      ]
    },
    {
      "primitives": [
        {
          "mode": 4,
          "attributes": {
            "NORMAL": 11,
            "POSITION": 12,
            "TEXCOORD_0": 13
          },
          "indices": 14,
          "material": 3
        }
      ]
    }
  ],
  "cameras": [
    {
      "type": "perspective",
      "perspective": {
        "aspectRatio": 1,
        "yfov": 0.7853981633974483,
        "zfar": 2000000,
        "znear": 0.1000000014901161
      }
    }
  ],
  "extensions": {
    "KHR_lights_punctual": {
      "lights": [
        {
          "name": "headLightNode",
          "color": [
            1,
            0.9333333333333333,
            0.8666666666666667
          ],
          "intensity": 0.25,
          "type": "directional"
        },
        {
          "name": "keyLightNode",
          "color": [
            1,
            0.9333333333333333,
            0.8666666666666667
          ],
          "intensity": 0.324999988079071,
          "type": "directional"
        }
      ]
    }
  },
  "extensionsUsed": [
    "KHR_lights_punctual"
  ]
}